<svg xmlns="http://www.w3.org/2000/svg" width="798" height="194" viewBox="0 0 798 194" role="img" aria-label="Contribution activity">
  <rect x="0.5" y="0.5" width="797" height="193" rx="10" fill="#0D1117" stroke="#30363D"/>
  <text x="28" y="36" fill="#58A6FF" font-size="17" font-weight="700" font-family="'Segoe UI',Ubuntu,'Helvetica Neue',Sans-Serif">Contribution Activity</text>
  <text x="28" y="58" fill="#8B949E" font-size="12.5" font-family="'Segoe UI',Ubuntu,'Helvetica Neue',Sans-Serif">439 contributions in the last year</text>
  <rect x="28" y="76" width="11" height="11" rx="2.5" fill="#161B22"><title>2025-09-14: 0</title></rect><rect x="28" y="90" width="11" height="11" rx="2.5" fill="#161B22"><title>2025-09-15: 0</title></rect><rect x="28" y="104" width="11" height="11" rx="2.5" fill="#161B22"><title>2025-09-16: 0</title></rect><rect x="28" y="118" width="11" height="11" rx="2.5" fill="#161B22"><title>2025-09-17: 0</title></rect><rect x="28" y="132" width="11" height="11" rx="2.5" fill="#161B22"><title>2025-09-18: 0</title></rect><rect x="28" y="146" width="11" height="11" rx="2.5" fill="#161B22"><title>2025-09-19: 0</title></rect><rect x="28" y="160" width="11" height="11" rx="2.5" fill="#161B22"><title>2025-09-20: 0</title></rect><rect x="42" y="76" width="11" height="11" rx="2.5" fill="#161B22"><title>2025-09-21: 0</title></rect><rect x="42" y="90" width="11" height="11" rx="2.5" fill="#161B22"><title>2025-09-22: 0</title></rect><rect x="42" y="104" width="11" height="11" rx="2.5" fill="#161B22"><title>2025-09-23: 0</title></rect><rect x="42" y="118" width="11" height="11" rx="2.5" fill="#161B22"><title>2025-09-24: 0</title></rect><rect x="42" y="132" width="11" height="11" rx="2.5" fill="#161B22"><title>2025-09-25: 0</title></rect><rect x="42" y="146" width="11" height="11" rx="2.5" fill="#161B22"><title>2025-09-26: 0</title></rect><rect x="42" y="160" width="11" height="11" rx="2.5" fill="#161B22"><title>2025-09-27: 0</title></rect><rect x="56" y="76" width="11" height="11" rx="2.5" fill="#161B22"><title>2025-09-28: 0</title></rect><rect x="56" y="90" width="11" height="11" rx="2.5" fill="#161B22"><title>2025-09-29: 0</title></rect><rect x="56" y="104" width="11" height="11" rx="2.5" fill="#161B22"><title>2025-09-30: 0</title></rect><rect x="56" y="118" width="11" height="11" rx="2.5" fill="#161B22"><title>2025-10-01: 0</title></rect><rect x="56" y="132" width="11" height="11" rx="2.5" fill="#161B22"><title>2025-10-02: 0</title></rect><rect x="56" y="146" width="11" height="11" rx="2.5" fill="#161B22"><title>2025-10-03: 0</title></rect><rect x="56" y="160" width="11" height="11" rx="2.5" fill="#161B22"><title>2025-10-04: 0</title></rect><rect x="70" y="76" width="11" height="11" rx="2.5" fill="#161B22"><title>2025-10-05: 0</title></rect><rect x="70" y="90" width="11" height="11" rx="2.5" fill="#161B22"><title>2025-10-06: 0</title></rect><rect x="70" y="104" width="11" height="11" rx="2.5" fill="#161B22"><title>2025-10-07: 0</title></rect><rect x="70" y="118" width="11" height="11" rx="2.5" fill="#161B22"><title>2025-10-08: 0</title></rect><rect x="70" y="132" width="11" height="11" rx="2.5" fill="#161B22"><title>2025-10-09: 0</title></rect><rect x="70" y="146" width="11" height="11" rx="2.5" fill="#161B22"><title>2025-10-10: 0</title></rect><rect x="70" y="160" width="11" height="11" rx="2.5" fill="#161B22"><title>2025-10-11: 0</title></rect><rect x="84" y="76" width="11" height="11" rx="2.5" fill="#161B22"><title>2025-10-12: 0</title></rect><rect x="84" y="90" width="11" height="11" rx="2.5" fill="#161B22"><title>2025-10-13: 0</title></rect><rect x="84" y="104" width="11" height="11" rx="2.5" fill="#161B22"><title>2025-10-14: 0</title></rect><rect x="84" y="118" width="11" height="11" rx="2.5" fill="#161B22"><title>2025-10-15: 0</title></rect><rect x="84" y="132" width="11" height="11" rx="2.5" fill="#161B22"><title>2025-10-16: 0</title></rect><rect x="84" y="146" width="11" height="11" rx="2.5" fill="#161B22"><title>2025-10-17: 0</title></rect><rect x="84" y="160" width="11" height="11" rx="2.5" fill="#161B22"><title>2025-10-18: 0</title></rect><rect x="98" y="76" width="11" height="11" rx="2.5" fill="#161B22"><title>2025-10-19: 0</title></rect><rect x="98" y="90" width="11" height="11" rx="2.5" fill="#161B22"><title>2025-10-20: 0</title></rect><rect x="98" y="104" width="11" height="11" rx="2.5" fill="#161B22"><title>2025-10-21: 0</title></rect><rect x="98" y="118" width="11" height="11" rx="2.5" fill="#161B22"><title>2025-10-22: 0</title></rect><rect x="98" y="132" width="11" height="11" rx="2.5" fill="#161B22"><title>2025-10-23: 0</title></rect><rect x="98" y="146" width="11" height="11" rx="2.5" fill="#161B22"><title>2025-10-24: 0</title></rect><rect x="98" y="160" width="11" height="11" rx="2.5" fill="#161B22"><title>2025-10-25: 0</title></rect><rect x="112" y="76" width="11" height="11" rx="2.5" fill="#161B22"><title>2025-10-26: 0</title></rect><rect x="112" y="90" width="11" height="11" rx="2.5" fill="#161B22"><title>2025-10-27: 0</title></rect><rect x="112" y="104" width="11" height="11" rx="2.5" fill="#161B22"><title>2025-10-28: 0</title></rect><rect x="112" y="118" width="11" height="11" rx="2.5" fill="#161B22"><title>2025-10-29: 0</title></rect><rect x="112" y="132" width="11" height="11" rx="2.5" fill="#161B22"><title>2025-10-30: 0</title></rect><rect x="112" y="146" width="11" height="11" rx="2.5" fill="#161B22"><title>2025-10-31: 0</title></rect><rect x="112" y="160" width="11" height="11" rx="2.5" fill="#161B22"><title>2025-11-01: 0</title></rect><rect x="126" y="76" width="11" height="11" rx="2.5" fill="#161B22"><title>2025-11-02: 0</title></rect><rect x="126" y="90" width="11" height="11" rx="2.5" fill="#161B22"><title>2025-11-03: 0</title></rect><rect x="126" y="104" width="11" height="11" rx="2.5" fill="#161B22"><title>2025-11-04: 0</title></rect><rect x="126" y="118" width="11" height="11" rx="2.5" fill="#161B22"><title>2025-11-05: 0</title></rect><rect x="126" y="132" width="11" height="11" rx="2.5" fill="#161B22"><title>2025-11-06: 0</title></rect><rect x="126" y="146" width="11" height="11" rx="2.5" fill="#161B22"><title>2025-11-07: 0</title></rect><rect x="126" y="160" width="11" height="11" rx="2.5" fill="#161B22"><title>2025-11-08: 0</title></rect><rect x="140" y="76" width="11" height="11" rx="2.5" fill="#161B22"><title>2025-11-09: 0</title></rect><rect x="140" y="90" width="11" height="11" rx="2.5" fill="#161B22"><title>2025-11-10: 0</title></rect><rect x="140" y="104" width="11" height="11" rx="2.5" fill="#161B22"><title>2025-11-11: 0</title></rect><rect x="140" y="118" width="11" height="11" rx="2.5" fill="#161B22"><title>2025-11-12: 0</title></rect><rect x="140" y="132" width="11" height="11" rx="2.5" fill="#161B22"><title>2025-11-13: 0</title></rect><rect x="140" y="146" width="11" height="11" rx="2.5" fill="#161B22"><title>2025-11-14: 0</title></rect><rect x="140" y="160" width="11" height="11" rx="2.5" fill="#161B22"><title>2025-11-15: 0</title></rect><rect x="154" y="76" width="11" height="11" rx="2.5" fill="#161B22"><title>2025-11-16: 0</title></rect><rect x="154" y="90" width="11" height="11" rx="2.5" fill="#161B22"><title>2025-11-17: 0</title></rect><rect x="154" y="104" width="11" height="11" rx="2.5" fill="#161B22"><title>2025-11-18: 0</title></rect><rect x="154" y="118" width="11" height="11" rx="2.5" fill="#161B22"><title>2025-11-19: 0</title></rect><rect x="154" y="132" width="11" height="11" rx="2.5" fill="#161B22"><title>2025-11-20: 0</title></rect><rect x="154" y="146" width="11" height="11" rx="2.5" fill="#161B22"><title>2025-11-21: 0</title></rect><rect x="154" y="160" width="11" height="11" rx="2.5" fill="#161B22"><title>2025-11-22: 0</title></rect><rect x="168" y="76" width="11" height="11" rx="2.5" fill="#161B22"><title>2025-11-23: 0</title></rect><rect x="168" y="90" width="11" height="11" rx="2.5" fill="#161B22"><title>2025-11-24: 0</title></rect><rect x="168" y="104" width="11" height="11" rx="2.5" fill="#161B22"><title>2025-11-25: 0</title></rect><rect x="168" y="118" width="11" height="11" rx="2.5" fill="#161B22"><title>2025-11-26: 0</title></rect><rect x="168" y="132" width="11" height="11" rx="2.5" fill="#161B22"><title>2025-11-27: 0</title></rect><rect x="168" y="146" width="11" height="11" rx="2.5" fill="#161B22"><title>2025-11-28: 0</title></rect><rect x="168" y="160" width="11" height="11" rx="2.5" fill="#161B22"><title>2025-11-29: 0</title></rect><rect x="182" y="76" width="11" height="11" rx="2.5" fill="#161B22"><title>2025-11-30: 0</title></rect><rect x="182" y="90" width="11" height="11" rx="2.5" fill="#161B22"><title>2025-12-01: 0</title></rect><rect x="182" y="104" width="11" height="11" rx="2.5" fill="#161B22"><title>2025-12-02: 0</title></rect><rect x="182" y="118" width="11" height="11" rx="2.5" fill="#161B22"><title>2025-12-03: 0</title></rect><rect x="182" y="132" width="11" height="11" rx="2.5" fill="#161B22"><title>2025-12-04: 0</title></rect><rect x="182" y="146" width="11" height="11" rx="2.5" fill="#161B22"><title>2025-12-05: 0</title></rect><rect x="182" y="160" width="11" height="11" rx="2.5" fill="#161B22"><title>2025-12-06: 0</title></rect><rect x="196" y="76" width="11" height="11" rx="2.5" fill="#161B22"><title>2025-12-07: 0</title></rect><rect x="196" y="90" width="11" height="11" rx="2.5" fill="#161B22"><title>2025-12-08: 0</title></rect><rect x="196" y="104" width="11" height="11" rx="2.5" fill="#161B22"><title>2025-12-09: 0</title></rect><rect x="196" y="118" width="11" height="11" rx="2.5" fill="#161B22"><title>2025-12-10: 0</title></rect><rect x="196" y="132" width="11" height="11" rx="2.5" fill="#161B22"><title>2025-12-11: 0</title></rect><rect x="196" y="146" width="11" height="11" rx="2.5" fill="#161B22"><title>2025-12-12: 0</title></rect><rect x="196" y="160" width="11" height="11" rx="2.5" fill="#161B22"><title>2025-12-13: 0</title></rect><rect x="210" y="76" width="11" height="11" rx="2.5" fill="#161B22"><title>2025-12-14: 0</title></rect><rect x="210" y="90" width="11" height="11" rx="2.5" fill="#161B22"><title>2025-12-15: 0</title></rect><rect x="210" y="104" width="11" height="11" rx="2.5" fill="#161B22"><title>2025-12-16: 0</title></rect><rect x="210" y="118" width="11" height="11" rx="2.5" fill="#161B22"><title>2025-12-17: 0</title></rect><rect x="210" y="132" width="11" height="11" rx="2.5" fill="#161B22"><title>2025-12-18: 0</title></rect><rect x="210" y="146" width="11" height="11" rx="2.5" fill="#161B22"><title>2025-12-19: 0</title></rect><rect x="210" y="160" width="11" height="11" rx="2.5" fill="#161B22"><title>2025-12-20: 0</title></rect><rect x="224" y="76" width="11" height="11" rx="2.5" fill="#161B22"><title>2025-12-21: 0</title></rect><rect x="224" y="90" width="11" height="11" rx="2.5" fill="#161B22"><title>2025-12-22: 0</title></rect><rect x="224" y="104" width="11" height="11" rx="2.5" fill="#161B22"><title>2025-12-23: 0</title></rect><rect x="224" y="118" width="11" height="11" rx="2.5" fill="#161B22"><title>2025-12-24: 0</title></rect><rect x="224" y="132" width="11" height="11" rx="2.5" fill="#161B22"><title>2025-12-25: 0</title></rect><rect x="224" y="146" width="11" height="11" rx="2.5" fill="#161B22"><title>2025-12-26: 0</title></rect><rect x="224" y="160" width="11" height="11" rx="2.5" fill="#161B22"><title>2025-12-27: 0</title></rect><rect x="238" y="76" width="11" height="11" rx="2.5" fill="#161B22"><title>2025-12-28: 0</title></rect><rect x="238" y="90" width="11" height="11" rx="2.5" fill="#161B22"><title>2025-12-29: 0</title></rect><rect x="238" y="104" width="11" height="11" rx="2.5" fill="#161B22"><title>2025-12-30: 0</title></rect><rect x="238" y="118" width="11" height="11" rx="2.5" fill="#161B22"><title>2025-12-31: 0</title></rect><rect x="238" y="132" width="11" height="11" rx="2.5" fill="#161B22"><title>2026-01-01: 0</title></rect><rect x="238" y="146" width="11" height="11" rx="2.5" fill="#161B22"><title>2026-01-02: 0</title></rect><rect x="238" y="160" width="11" height="11" rx="2.5" fill="#161B22"><title>2026-01-03: 0</title></rect><rect x="252" y="76" width="11" height="11" rx="2.5" fill="#161B22"><title>2026-01-04: 0</title></rect><rect x="252" y="90" width="11" height="11" rx="2.5" fill="#161B22"><title>2026-01-05: 0</title></rect><rect x="252" y="104" width="11" height="11" rx="2.5" fill="#161B22"><title>2026-01-06: 0</title></rect><rect x="252" y="118" width="11" height="11" rx="2.5" fill="#161B22"><title>2026-01-07: 0</title></rect><rect x="252" y="132" width="11" height="11" rx="2.5" fill="#161B22"><title>2026-01-08: 0</title></rect><rect x="252" y="146" width="11" height="11" rx="2.5" fill="#161B22"><title>2026-01-09: 0</title></rect><rect x="252" y="160" width="11" height="11" rx="2.5" fill="#161B22"><title>2026-01-10: 0</title></rect><rect x="266" y="76" width="11" height="11" rx="2.5" fill="#161B22"><title>2026-01-11: 0</title></rect><rect x="266" y="90" width="11" height="11" rx="2.5" fill="#161B22"><title>2026-01-12: 0</title></rect><rect x="266" y="104" width="11" height="11" rx="2.5" fill="#161B22"><title>2026-01-13: 0</title></rect><rect x="266" y="118" width="11" height="11" rx="2.5" fill="#161B22"><title>2026-01-14: 0</title></rect><rect x="266" y="132" width="11" height="11" rx="2.5" fill="#161B22"><title>2026-01-15: 0</title></rect><rect x="266" y="146" width="11" height="11" rx="2.5" fill="#161B22"><title>2026-01-16: 0</title></rect><rect x="266" y="160" width="11" height="11" rx="2.5" fill="#161B22"><title>2026-01-17: 0</title></rect><rect x="280" y="76" width="11" height="11" rx="2.5" fill="#161B22"><title>2026-01-18: 0</title></rect><rect x="280" y="90" width="11" height="11" rx="2.5" fill="#161B22"><title>2026-01-19: 0</title></rect><rect x="280" y="104" width="11" height="11" rx="2.5" fill="#161B22"><title>2026-01-20: 0</title></rect><rect x="280" y="118" width="11" height="11" rx="2.5" fill="#161B22"><title>2026-01-21: 0</title></rect><rect x="280" y="132" width="11" height="11" rx="2.5" fill="#161B22"><title>2026-01-22: 0</title></rect><rect x="280" y="146" width="11" height="11" rx="2.5" fill="#161B22"><title>2026-01-23: 0</title></rect><rect x="280" y="160" width="11" height="11" rx="2.5" fill="#161B22"><title>2026-01-24: 0</title></rect><rect x="294" y="76" width="11" height="11" rx="2.5" fill="#161B22"><title>2026-01-25: 0</title></rect><rect x="294" y="90" width="11" height="11" rx="2.5" fill="#161B22"><title>2026-01-26: 0</title></rect><rect x="294" y="104" width="11" height="11" rx="2.5" fill="#161B22"><title>2026-01-27: 0</title></rect><rect x="294" y="118" width="11" height="11" rx="2.5" fill="#161B22"><title>2026-01-28: 0</title></rect><rect x="294" y="132" width="11" height="11" rx="2.5" fill="#161B22"><title>2026-01-29: 0</title></rect><rect x="294" y="146" width="11" height="11" rx="2.5" fill="#161B22"><title>2026-01-30: 0</title></rect><rect x="294" y="160" width="11" height="11" rx="2.5" fill="#161B22"><title>2026-01-31: 0</title></rect><rect x="308" y="76" width="11" height="11" rx="2.5" fill="#161B22"><title>2026-02-01: 0</title></rect><rect x="308" y="90" width="11" height="11" rx="2.5" fill="#161B22"><title>2026-02-02: 0</title></rect><rect x="308" y="104" width="11" height="11" rx="2.5" fill="#161B22"><title>2026-02-03: 0</title></rect><rect x="308" y="118" width="11" height="11" rx="2.5" fill="#161B22"><title>2026-02-04: 0</title></rect><rect x="308" y="132" width="11" height="11" rx="2.5" fill="#161B22"><title>2026-02-05: 0</title></rect><rect x="308" y="146" width="11" height="11" rx="2.5" fill="#161B22"><title>2026-02-06: 0</title></rect><rect x="308" y="160" width="11" height="11" rx="2.5" fill="#161B22"><title>2026-02-07: 0</title></rect><rect x="322" y="76" width="11" height="11" rx="2.5" fill="#161B22"><title>2026-02-08: 0</title></rect><rect x="322" y="90" width="11" height="11" rx="2.5" fill="#0E4429"><title>2026-02-09: 1</title></rect><rect x="322" y="104" width="11" height="11" rx="2.5" fill="#161B22"><title>2026-02-10: 0</title></rect><rect x="322" y="118" width="11" height="11" rx="2.5" fill="#161B22"><title>2026-02-11: 0</title></rect><rect x="322" y="132" width="11" height="11" rx="2.5" fill="#161B22"><title>2026-02-12: 0</title></rect><rect x="322" y="146" width="11" height="11" rx="2.5" fill="#161B22"><title>2026-02-13: 0</title></rect><rect x="322" y="160" width="11" height="11" rx="2.5" fill="#161B22"><title>2026-02-14: 0</title></rect><rect x="336" y="76" width="11" height="11" rx="2.5" fill="#161B22"><title>2026-02-15: 0</title></rect><rect x="336" y="90" width="11" height="11" rx="2.5" fill="#161B22"><title>2026-02-16: 0</title></rect><rect x="336" y="104" width="11" height="11" rx="2.5" fill="#161B22"><title>2026-02-17: 0</title></rect><rect x="336" y="118" width="11" height="11" rx="2.5" fill="#161B22"><title>2026-02-18: 0</title></rect><rect x="336" y="132" width="11" height="11" rx="2.5" fill="#161B22"><title>2026-02-19: 0</title></rect><rect x="336" y="146" width="11" height="11" rx="2.5" fill="#161B22"><title>2026-02-20: 0</title></rect><rect x="336" y="160" width="11" height="11" rx="2.5" fill="#161B22"><title>2026-02-21: 0</title></rect><rect x="350" y="76" width="11" height="11" rx="2.5" fill="#161B22"><title>2026-02-22: 0</title></rect><rect x="350" y="90" width="11" height="11" rx="2.5" fill="#161B22"><title>2026-02-23: 0</title></rect><rect x="350" y="104" width="11" height="11" rx="2.5" fill="#161B22"><title>2026-02-24: 0</title></rect><rect x="350" y="118" width="11" height="11" rx="2.5" fill="#161B22"><title>2026-02-25: 0</title></rect><rect x="350" y="132" width="11" height="11" rx="2.5" fill="#161B22"><title>2026-02-26: 0</title></rect><rect x="350" y="146" width="11" height="11" rx="2.5" fill="#161B22"><title>2026-02-27: 0</title></rect><rect x="350" y="160" width="11" height="11" rx="2.5" fill="#161B22"><title>2026-02-28: 0</title></rect><rect x="364" y="76" width="11" height="11" rx="2.5" fill="#161B22"><title>2026-03-01: 0</title></rect><rect x="364" y="90" width="11" height="11" rx="2.5" fill="#161B22"><title>2026-03-02: 0</title></rect><rect x="364" y="104" width="11" height="11" rx="2.5" fill="#161B22"><title>2026-03-03: 0</title></rect><rect x="364" y="118" width="11" height="11" rx="2.5" fill="#161B22"><title>2026-03-04: 0</title></rect><rect x="364" y="132" width="11" height="11" rx="2.5" fill="#161B22"><title>2026-03-05: 0</title></rect><rect x="364" y="146" width="11" height="11" rx="2.5" fill="#161B22"><title>2026-03-06: 0</title></rect><rect x="364" y="160" width="11" height="11" rx="2.5" fill="#161B22"><title>2026-03-07: 0</title></rect><rect x="378" y="76" width="11" height="11" rx="2.5" fill="#161B22"><title>2026-03-08: 0</title></rect><rect x="378" y="90" width="11" height="11" rx="2.5" fill="#161B22"><title>2026-03-09: 0</title></rect><rect x="378" y="104" width="11" height="11" rx="2.5" fill="#161B22"><title>2026-03-10: 0</title></rect><rect x="378" y="118" width="11" height="11" rx="2.5" fill="#161B22"><title>2026-03-11: 0</title></rect><rect x="378" y="132" width="11" height="11" rx="2.5" fill="#161B22"><title>2026-03-12: 0</title></rect><rect x="378" y="146" width="11" height="11" rx="2.5" fill="#161B22"><title>2026-03-13: 0</title></rect><rect x="378" y="160" width="11" height="11" rx="2.5" fill="#161B22"><title>2026-03-14: 0</title></rect><rect x="392" y="76" width="11" height="11" rx="2.5" fill="#161B22"><title>2026-03-15: 0</title></rect><rect x="392" y="90" width="11" height="11" rx="2.5" fill="#161B22"><title>2026-03-16: 0</title></rect><rect x="392" y="104" width="11" height="11" rx="2.5" fill="#161B22"><title>2026-03-17: 0</title></rect><rect x="392" y="118" width="11" height="11" rx="2.5" fill="#161B22"><title>2026-03-18: 0</title></rect><rect x="392" y="132" width="11" height="11" rx="2.5" fill="#161B22"><title>2026-03-19: 0</title></rect><rect x="392" y="146" width="11" height="11" rx="2.5" fill="#161B22"><title>2026-03-20: 0</title></rect><rect x="392" y="160" width="11" height="11" rx="2.5" fill="#161B22"><title>2026-03-21: 0</title></rect><rect x="406" y="76" width="11" height="11" rx="2.5" fill="#161B22"><title>2026-03-22: 0</title></rect><rect x="406" y="90" width="11" height="11" rx="2.5" fill="#161B22"><title>2026-03-23: 0</title></rect><rect x="406" y="104" width="11" height="11" rx="2.5" fill="#161B22"><title>2026-03-24: 0</title></rect><rect x="406" y="118" width="11" height="11" rx="2.5" fill="#161B22"><title>2026-03-25: 0</title></rect><rect x="406" y="132" width="11" height="11" rx="2.5" fill="#161B22"><title>2026-03-26: 0</title></rect><rect x="406" y="146" width="11" height="11" rx="2.5" fill="#161B22"><title>2026-03-27: 0</title></rect><rect x="406" y="160" width="11" height="11" rx="2.5" fill="#161B22"><title>2026-03-28: 0</title></rect><rect x="420" y="76" width="11" height="11" rx="2.5" fill="#161B22"><title>2026-03-29: 0</title></rect><rect x="420" y="90" width="11" height="11" rx="2.5" fill="#161B22"><title>2026-03-30: 0</title></rect><rect x="420" y="104" width="11" height="11" rx="2.5" fill="#161B22"><title>2026-03-31: 0</title></rect><rect x="420" y="118" width="11" height="11" rx="2.5" fill="#161B22"><title>2026-04-01: 0</title></rect><rect x="420" y="132" width="11" height="11" rx="2.5" fill="#161B22"><title>2026-04-02: 0</title></rect><rect x="420" y="146" width="11" height="11" rx="2.5" fill="#161B22"><title>2026-04-03: 0</title></rect><rect x="420" y="160" width="11" height="11" rx="2.5" fill="#161B22"><title>2026-04-04: 0</title></rect><rect x="434" y="76" width="11" height="11" rx="2.5" fill="#161B22"><title>2026-04-05: 0</title></rect><rect x="434" y="90" width="11" height="11" rx="2.5" fill="#161B22"><title>2026-04-06: 0</title></rect><rect x="434" y="104" width="11" height="11" rx="2.5" fill="#161B22"><title>2026-04-07: 0</title></rect><rect x="434" y="118" width="11" height="11" rx="2.5" fill="#161B22"><title>2026-04-08: 0</title></rect><rect x="434" y="132" width="11" height="11" rx="2.5" fill="#161B22"><title>2026-04-09: 0</title></rect><rect x="434" y="146" width="11" height="11" rx="2.5" fill="#161B22"><title>2026-04-10: 0</title></rect><rect x="434" y="160" width="11" height="11" rx="2.5" fill="#161B22"><title>2026-04-11: 0</title></rect><rect x="448" y="76" width="11" height="11" rx="2.5" fill="#161B22"><title>2026-04-12: 0</title></rect><rect x="448" y="90" width="11" height="11" rx="2.5" fill="#161B22"><title>2026-04-13: 0</title></rect><rect x="448" y="104" width="11" height="11" rx="2.5" fill="#161B22"><title>2026-04-14: 0</title></rect><rect x="448" y="118" width="11" height="11" rx="2.5" fill="#161B22"><title>2026-04-15: 0</title></rect><rect x="448" y="132" width="11" height="11" rx="2.5" fill="#161B22"><title>2026-04-16: 0</title></rect><rect x="448" y="146" width="11" height="11" rx="2.5" fill="#161B22"><title>2026-04-17: 0</title></rect><rect x="448" y="160" width="11" height="11" rx="2.5" fill="#161B22"><title>2026-04-18: 0</title></rect><rect x="462" y="76" width="11" height="11" rx="2.5" fill="#161B22"><title>2026-04-19: 0</title></rect><rect x="462" y="90" width="11" height="11" rx="2.5" fill="#161B22"><title>2026-04-20: 0</title></rect><rect x="462" y="104" width="11" height="11" rx="2.5" fill="#161B22"><title>2026-04-21: 0</title></rect><rect x="462" y="118" width="11" height="11" rx="2.5" fill="#161B22"><title>2026-04-22: 0</title></rect><rect x="462" y="132" width="11" height="11" rx="2.5" fill="#161B22"><title>2026-04-23: 0</title></rect><rect x="462" y="146" width="11" height="11" rx="2.5" fill="#161B22"><title>2026-04-24: 0</title></rect><rect x="462" y="160" width="11" height="11" rx="2.5" fill="#161B22"><title>2026-04-25: 0</title></rect><rect x="476" y="76" width="11" height="11" rx="2.5" fill="#161B22"><title>2026-04-26: 0</title></rect><rect x="476" y="90" width="11" height="11" rx="2.5" fill="#161B22"><title>2026-04-27: 0</title></rect><rect x="476" y="104" width="11" height="11" rx="2.5" fill="#161B22"><title>2026-04-28: 0</title></rect><rect x="476" y="118" width="11" height="11" rx="2.5" fill="#161B22"><title>2026-04-29: 0</title></rect><rect x="476" y="132" width="11" height="11" rx="2.5" fill="#161B22"><title>2026-04-30: 0</title></rect><rect x="476" y="146" width="11" height="11" rx="2.5" fill="#161B22"><title>2026-05-01: 0</title></rect><rect x="476" y="160" width="11" height="11" rx="2.5" fill="#161B22"><title>2026-05-02: 0</title></rect><rect x="490" y="76" width="11" height="11" rx="2.5" fill="#161B22"><title>2026-05-03: 0</title></rect><rect x="490" y="90" width="11" height="11" rx="2.5" fill="#161B22"><title>2026-05-04: 0</title></rect><rect x="490" y="104" width="11" height="11" rx="2.5" fill="#161B22"><title>2026-05-05: 0</title></rect><rect x="490" y="118" width="11" height="11" rx="2.5" fill="#161B22"><title>2026-05-06: 0</title></rect><rect x="490" y="132" width="11" height="11" rx="2.5" fill="#161B22"><title>2026-05-07: 0</title></rect><rect x="490" y="146" width="11" height="11" rx="2.5" fill="#161B22"><title>2026-05-08: 0</title></rect><rect x="490" y="160" width="11" height="11" rx="2.5" fill="#161B22"><title>2026-05-09: 0</title></rect><rect x="504" y="76" width="11" height="11" rx="2.5" fill="#161B22"><title>2026-05-10: 0</title></rect><rect x="504" y="90" width="11" height="11" rx="2.5" fill="#161B22"><title>2026-05-11: 0</title></rect><rect x="504" y="104" width="11" height="11" rx="2.5" fill="#161B22"><title>2026-05-12: 0</title></rect><rect x="504" y="118" width="11" height="11" rx="2.5" fill="#161B22"><title>2026-05-13: 0</title></rect><rect x="504" y="132" width="11" height="11" rx="2.5" fill="#161B22"><title>2026-05-14: 0</title></rect><rect x="504" y="146" width="11" height="11" rx="2.5" fill="#161B22"><title>2026-05-15: 0</title></rect><rect x="504" y="160" width="11" height="11" rx="2.5" fill="#161B22"><title>2026-05-16: 0</title></rect><rect x="518" y="76" width="11" height="11" rx="2.5" fill="#161B22"><title>2026-05-17: 0</title></rect><rect x="518" y="90" width="11" height="11" rx="2.5" fill="#161B22"><title>2026-05-18: 0</title></rect><rect x="518" y="104" width="11" height="11" rx="2.5" fill="#161B22"><title>2026-05-19: 0</title></rect><rect x="518" y="118" width="11" height="11" rx="2.5" fill="#161B22"><title>2026-05-20: 0</title></rect><rect x="518" y="132" width="11" height="11" rx="2.5" fill="#161B22"><title>2026-05-21: 0</title></rect><rect x="518" y="146" width="11" height="11" rx="2.5" fill="#161B22"><title>2026-05-22: 0</title></rect><rect x="518" y="160" width="11" height="11" rx="2.5" fill="#161B22"><title>2026-05-23: 0</title></rect><rect x="532" y="76" width="11" height="11" rx="2.5" fill="#161B22"><title>2026-05-24: 0</title></rect><rect x="532" y="90" width="11" height="11" rx="2.5" fill="#161B22"><title>2026-05-25: 0</title></rect><rect x="532" y="104" width="11" height="11" rx="2.5" fill="#161B22"><title>2026-05-26: 0</title></rect><rect x="532" y="118" width="11" height="11" rx="2.5" fill="#161B22"><title>2026-05-27: 0</title></rect><rect x="532" y="132" width="11" height="11" rx="2.5" fill="#161B22"><title>2026-05-28: 0</title></rect><rect x="532" y="146" width="11" height="11" rx="2.5" fill="#161B22"><title>2026-05-29: 0</title></rect><rect x="532" y="160" width="11" height="11" rx="2.5" fill="#161B22"><title>2026-05-30: 0</title></rect><rect x="546" y="76" width="11" height="11" rx="2.5" fill="#161B22"><title>2026-05-31: 0</title></rect><rect x="546" y="90" width="11" height="11" rx="2.5" fill="#161B22"><title>2026-06-01: 0</title></rect><rect x="546" y="104" width="11" height="11" rx="2.5" fill="#161B22"><title>2026-06-02: 0</title></rect><rect x="546" y="118" width="11" height="11" rx="2.5" fill="#161B22"><title>2026-06-03: 0</title></rect><rect x="546" y="132" width="11" height="11" rx="2.5" fill="#161B22"><title>2026-06-04: 0</title></rect><rect x="546" y="146" width="11" height="11" rx="2.5" fill="#161B22"><title>2026-06-05: 0</title></rect><rect x="546" y="160" width="11" height="11" rx="2.5" fill="#161B22"><title>2026-06-06: 0</title></rect><rect x="560" y="76" width="11" height="11" rx="2.5" fill="#161B22"><title>2026-06-07: 0</title></rect><rect x="560" y="90" width="11" height="11" rx="2.5" fill="#161B22"><title>2026-06-08: 0</title></rect><rect x="560" y="104" width="11" height="11" rx="2.5" fill="#161B22"><title>2026-06-09: 0</title></rect><rect x="560" y="118" width="11" height="11" rx="2.5" fill="#161B22"><title>2026-06-10: 0</title></rect><rect x="560" y="132" width="11" height="11" rx="2.5" fill="#161B22"><title>2026-06-11: 0</title></rect><rect x="560" y="146" width="11" height="11" rx="2.5" fill="#161B22"><title>2026-06-12: 0</title></rect><rect x="560" y="160" width="11" height="11" rx="2.5" fill="#161B22"><title>2026-06-13: 0</title></rect><rect x="574" y="76" width="11" height="11" rx="2.5" fill="#161B22"><title>2026-06-14: 0</title></rect><rect x="574" y="90" width="11" height="11" rx="2.5" fill="#161B22"><title>2026-06-15: 0</title></rect><rect x="574" y="104" width="11" height="11" rx="2.5" fill="#161B22"><title>2026-06-16: 0</title></rect><rect x="574" y="118" width="11" height="11" rx="2.5" fill="#161B22"><title>2026-06-17: 0</title></rect><rect x="574" y="132" width="11" height="11" rx="2.5" fill="#161B22"><title>2026-06-18: 0</title></rect><rect x="574" y="146" width="11" height="11" rx="2.5" fill="#161B22"><title>2026-06-19: 0</title></rect><rect x="574" y="160" width="11" height="11" rx="2.5" fill="#161B22"><title>2026-06-20: 0</title></rect><rect x="588" y="76" width="11" height="11" rx="2.5" fill="#161B22"><title>2026-06-21: 0</title></rect><rect x="588" y="90" width="11" height="11" rx="2.5" fill="#161B22"><title>2026-06-22: 0</title></rect><rect x="588" y="104" width="11" height="11" rx="2.5" fill="#161B22"><title>2026-06-23: 0</title></rect><rect x="588" y="118" width="11" height="11" rx="2.5" fill="#161B22"><title>2026-06-24: 0</title></rect><rect x="588" y="132" width="11" height="11" rx="2.5" fill="#161B22"><title>2026-06-25: 0</title></rect><rect x="588" y="146" width="11" height="11" rx="2.5" fill="#161B22"><title>2026-06-26: 0</title></rect><rect x="588" y="160" width="11" height="11" rx="2.5" fill="#161B22"><title>2026-06-27: 0</title></rect><rect x="602" y="76" width="11" height="11" rx="2.5" fill="#161B22"><title>2026-06-28: 0</title></rect><rect x="602" y="90" width="11" height="11" rx="2.5" fill="#161B22"><title>2026-06-29: 0</title></rect><rect x="602" y="104" width="11" height="11" rx="2.5" fill="#161B22"><title>2026-06-30: 0</title></rect><rect x="602" y="118" width="11" height="11" rx="2.5" fill="#161B22"><title>2026-07-01: 0</title></rect><rect x="602" y="132" width="11" height="11" rx="2.5" fill="#161B22"><title>2026-07-02: 0</title></rect><rect x="602" y="146" width="11" height="11" rx="2.5" fill="#161B22"><title>2026-07-03: 0</title></rect><rect x="602" y="160" width="11" height="11" rx="2.5" fill="#161B22"><title>2026-07-04: 0</title></rect><rect x="616" y="76" width="11" height="11" rx="2.5" fill="#161B22"><title>2026-07-05: 0</title></rect><rect x="616" y="90" width="11" height="11" rx="2.5" fill="#161B22"><title>2026-07-06: 0</title></rect><rect x="616" y="104" width="11" height="11" rx="2.5" fill="#161B22"><title>2026-07-07: 0</title></rect><rect x="616" y="118" width="11" height="11" rx="2.5" fill="#161B22"><title>2026-07-08: 0</title></rect><rect x="616" y="132" width="11" height="11" rx="2.5" fill="#161B22"><title>2026-07-09: 0</title></rect><rect x="616" y="146" width="11" height="11" rx="2.5" fill="#26A641"><title>2026-07-10: 8</title></rect><rect x="616" y="160" width="11" height="11" rx="2.5" fill="#39D353"><title>2026-07-11: 43</title></rect><rect x="630" y="76" width="11" height="11" rx="2.5" fill="#39D353"><title>2026-07-12: 35</title></rect><rect x="630" y="90" width="11" height="11" rx="2.5" fill="#26A641"><title>2026-07-13: 8</title></rect><rect x="630" y="104" width="11" height="11" rx="2.5" fill="#161B22"><title>2026-07-14: 0</title></rect><rect x="630" y="118" width="11" height="11" rx="2.5" fill="#161B22"><title>2026-07-15: 0</title></rect><rect x="630" y="132" width="11" height="11" rx="2.5" fill="#161B22"><title>2026-07-16: 0</title></rect><rect x="630" y="146" width="11" height="11" rx="2.5" fill="#161B22"><title>2026-07-17: 0</title></rect><rect x="630" y="160" width="11" height="11" rx="2.5" fill="#161B22"><title>2026-07-18: 0</title></rect><rect x="644" y="76" width="11" height="11" rx="2.5" fill="#161B22"><title>2026-07-19: 0</title></rect><rect x="644" y="90" width="11" height="11" rx="2.5" fill="#161B22"><title>2026-07-20: 0</title></rect><rect x="644" y="104" width="11" height="11" rx="2.5" fill="#161B22"><title>2026-07-21: 0</title></rect><rect x="644" y="118" width="11" height="11" rx="2.5" fill="#161B22"><title>2026-07-22: 0</title></rect><rect x="644" y="132" width="11" height="11" rx="2.5" fill="#161B22"><title>2026-07-23: 0</title></rect><rect x="644" y="146" width="11" height="11" rx="2.5" fill="#161B22"><title>2026-07-24: 0</title></rect><rect x="644" y="160" width="11" height="11" rx="2.5" fill="#161B22"><title>2026-07-25: 0</title></rect><rect x="658" y="76" width="11" height="11" rx="2.5" fill="#161B22"><title>2026-07-26: 0</title></rect><rect x="658" y="90" width="11" height="11" rx="2.5" fill="#161B22"><title>2026-07-27: 0</title></rect><rect x="658" y="104" width="11" height="11" rx="2.5" fill="#161B22"><title>2026-07-28: 0</title></rect><rect x="658" y="118" width="11" height="11" rx="2.5" fill="#161B22"><title>2026-07-29: 0</title></rect><rect x="658" y="132" width="11" height="11" rx="2.5" fill="#161B22"><title>2026-07-30: 0</title></rect><rect x="658" y="146" width="11" height="11" rx="2.5" fill="#161B22"><title>2026-07-31: 0</title></rect><rect x="658" y="160" width="11" height="11" rx="2.5" fill="#161B22"><title>2026-08-01: 0</title></rect><rect x="672" y="76" width="11" height="11" rx="2.5" fill="#161B22"><title>2026-08-02: 0</title></rect><rect x="672" y="90" width="11" height="11" rx="2.5" fill="#161B22"><title>2026-08-03: 0</title></rect><rect x="672" y="104" width="11" height="11" rx="2.5" fill="#161B22"><title>2026-08-04: 0</title></rect><rect x="672" y="118" width="11" height="11" rx="2.5" fill="#161B22"><title>2026-08-05: 0</title></rect><rect x="672" y="132" width="11" height="11" rx="2.5" fill="#161B22"><title>2026-08-06: 0</title></rect><rect x="672" y="146" width="11" height="11" rx="2.5" fill="#161B22"><title>2026-08-07: 0</title></rect><rect x="672" y="160" width="11" height="11" rx="2.5" fill="#161B22"><title>2026-08-08: 0</title></rect><rect x="686" y="76" width="11" height="11" rx="2.5" fill="#161B22"><title>2026-08-09: 0</title></rect><rect x="686" y="90" width="11" height="11" rx="2.5" fill="#0E4429"><title>2026-08-10: 1</title></rect><rect x="686" y="104" width="11" height="11" rx="2.5" fill="#39D353"><title>2026-08-11: 40</title></rect><rect x="686" y="118" width="11" height="11" rx="2.5" fill="#006D32"><title>2026-08-12: 4</title></rect><rect x="686" y="132" width="11" height="11" rx="2.5" fill="#161B22"><title>2026-08-13: 0</title></rect><rect x="686" y="146" width="11" height="11" rx="2.5" fill="#161B22"><title>2026-08-14: 0</title></rect><rect x="686" y="160" width="11" height="11" rx="2.5" fill="#161B22"><title>2026-08-15: 0</title></rect><rect x="700" y="76" width="11" height="11" rx="2.5" fill="#161B22"><title>2026-08-16: 0</title></rect><rect x="700" y="90" width="11" height="11" rx="2.5" fill="#161B22"><title>2026-08-17: 0</title></rect><rect x="700" y="104" width="11" height="11" rx="2.5" fill="#161B22"><title>2026-08-18: 0</title></rect><rect x="700" y="118" width="11" height="11" rx="2.5" fill="#161B22"><title>2026-08-19: 0</title></rect><rect x="700" y="132" width="11" height="11" rx="2.5" fill="#161B22"><title>2026-08-20: 0</title></rect><rect x="700" y="146" width="11" height="11" rx="2.5" fill="#161B22"><title>2026-08-21: 0</title></rect><rect x="700" y="160" width="11" height="11" rx="2.5" fill="#161B22"><title>2026-08-22: 0</title></rect><rect x="714" y="76" width="11" height="11" rx="2.5" fill="#39D353"><title>2026-08-23: 10</title></rect><rect x="714" y="90" width="11" height="11" rx="2.5" fill="#0E4429"><title>2026-08-24: 2</title></rect><rect x="714" y="104" width="11" height="11" rx="2.5" fill="#39D353"><title>2026-08-25: 41</title></rect><rect x="714" y="118" width="11" height="11" rx="2.5" fill="#39D353"><title>2026-08-26: 68</title></rect><rect x="714" y="132" width="11" height="11" rx="2.5" fill="#39D353"><title>2026-08-27: 18</title></rect><rect x="714" y="146" width="11" height="11" rx="2.5" fill="#39D353"><title>2026-08-28: 33</title></rect><rect x="714" y="160" width="11" height="11" rx="2.5" fill="#39D353"><title>2026-08-29: 12</title></rect><rect x="728" y="76" width="11" height="11" rx="2.5" fill="#39D353"><title>2026-08-30: 23</title></rect><rect x="728" y="90" width="11" height="11" rx="2.5" fill="#39D353"><title>2026-08-31: 10</title></rect><rect x="728" y="104" width="11" height="11" rx="2.5" fill="#39D353"><title>2026-09-01: 11</title></rect><rect x="728" y="118" width="11" height="11" rx="2.5" fill="#39D353"><title>2026-09-02: 10</title></rect><rect x="728" y="132" width="11" height="11" rx="2.5" fill="#26A641"><title>2026-09-03: 8</title></rect><rect x="728" y="146" width="11" height="11" rx="2.5" fill="#26A641"><title>2026-09-04: 8</title></rect><rect x="728" y="160" width="11" height="11" rx="2.5" fill="#26A641"><title>2026-09-05: 6</title></rect><rect x="742" y="76" width="11" height="11" rx="2.5" fill="#006D32"><title>2026-09-06: 4</title></rect><rect x="742" y="90" width="11" height="11" rx="2.5" fill="#26A641"><title>2026-09-07: 9</title></rect><rect x="742" y="104" width="11" height="11" rx="2.5" fill="#0E4429"><title>2026-09-08: 2</title></rect><rect x="742" y="118" width="11" height="11" rx="2.5" fill="#161B22"><title>2026-09-09: 0</title></rect><rect x="742" y="132" width="11" height="11" rx="2.5" fill="#26A641"><title>2026-09-10: 8</title></rect><rect x="742" y="146" width="11" height="11" rx="2.5" fill="#39D353"><title>2026-09-11: 11</title></rect><rect x="742" y="160" width="11" height="11" rx="2.5" fill="#006D32"><title>2026-09-12: 5</title></rect><rect x="756" y="76" width="11" height="11" rx="2.5" fill="#161B22"><title>2026-09-13: 0</title></rect>
  <text x="646" y="178" fill="#8B949E" font-size="11" font-family="'Segoe UI',Ubuntu,'Helvetica Neue',Sans-Serif" text-anchor="end">Less</text>
  <rect x="668" y="168" width="11" height="11" rx="2.5" fill="#161B22"/><rect x="682" y="168" width="11" height="11" rx="2.5" fill="#0E4429"/><rect x="696" y="168" width="11" height="11" rx="2.5" fill="#006D32"/><rect x="710" y="168" width="11" height="11" rx="2.5" fill="#26A641"/><rect x="724" y="168" width="11" height="11" rx="2.5" fill="#39D353"/>
  <text x="770" y="178" fill="#8B949E" font-size="11" font-family="'Segoe UI',Ubuntu,'Helvetica Neue',Sans-Serif" text-anchor="end">More</text>
</svg>